<?xml version="1.0" encoding="UTF-8" standalone="no"?>
<!DOCTYPE svg PUBLIC "-//W3C//DTD SVG 1.1//EN"
 "http://www.w3.org/Graphics/SVG/1.1/DTD/svg11.dtd">
<!-- Generated by graphviz version 2.47.3 (20210619.1520)
 -->
<!-- Title: dependencies Pages: 1 -->
<svg width="1495pt" height="247pt"
 viewBox="0.00 0.00 1495.00 246.80" xmlns="http://www.w3.org/2000/svg" xmlns:xlink="http://www.w3.org/1999/xlink">
<g id="graph0" class="graph" transform="scale(1 1) rotate(0) translate(4 242.8)">
<title>dependencies</title>
<polygon fill="white" stroke="transparent" points="-4,4 -4,-242.8 1491,-242.8 1491,4 -4,4"/>
<text text-anchor="middle" x="743.5" y="-8.2" font-family="sans-serif" font-size="14.00">dependencies</text>
<g id="clust1" class="cluster">
<title>cluster_SharedModule</title>
<polygon fill="none" stroke="black" stroke-dasharray="1,5" points="8,-32.8 8,-230.8 1479,-230.8 1479,-32.8 8,-32.8"/>
</g>
<g id="clust2" class="cluster">
<title>cluster_SharedModule_declarations</title>
<polygon fill="none" stroke="black" points="16,-40.8 16,-92.8 1471,-92.8 1471,-40.8 16,-40.8"/>
</g>
<g id="clust13" class="cluster">
<title>cluster_SharedModule_exports</title>
<polygon fill="none" stroke="black" points="82,-170.8 82,-222.8 1406,-222.8 1406,-170.8 82,-170.8"/>
</g>
<!-- AnnouncementComponent -->
<g id="node1" class="node">
<title>AnnouncementComponent</title>
<polygon fill="#ffffb3" stroke="black" points="1463.36,-84.8 1296.64,-84.8 1296.64,-48.8 1463.36,-48.8 1463.36,-84.8"/>
<text text-anchor="middle" x="1380" y="-62.6" font-family="Times,serif" font-size="14.00">AnnouncementComponent</text>
</g>
<!-- SharedModule -->
<g id="node10" class="node">
<title>SharedModule</title>
<polygon fill="#8dd3c7" stroke="black" points="782.42,-149.8 779.42,-153.8 758.42,-153.8 755.42,-149.8 683.58,-149.8 683.58,-113.8 782.42,-113.8 782.42,-149.8"/>
<text text-anchor="middle" x="733" y="-127.6" font-family="Times,serif" font-size="14.00">SharedModule</text>
</g>
<!-- AnnouncementComponent&#45;&gt;SharedModule -->
<g id="edge1" class="edge">
<title>AnnouncementComponent&#45;&gt;SharedModule</title>
<path fill="none" stroke="black" d="M1347.38,-84.91C1347.38,-104.14 1347.38,-131.8 1347.38,-131.8 1347.38,-131.8 792.24,-131.8 792.24,-131.8"/>
<polygon fill="black" stroke="black" points="792.24,-128.3 782.24,-131.8 792.24,-135.3 792.24,-128.3"/>
</g>
<!-- CdkBottomSheetComponent -->
<g id="node2" class="node">
<title>CdkBottomSheetComponent</title>
<polygon fill="#ffffb3" stroke="black" points="1278.78,-84.8 1101.22,-84.8 1101.22,-48.8 1278.78,-48.8 1278.78,-84.8"/>
<text text-anchor="middle" x="1190" y="-62.6" font-family="Times,serif" font-size="14.00">CdkBottomSheetComponent</text>
</g>
<!-- CdkBottomSheetComponent&#45;&gt;SharedModule -->
<g id="edge2" class="edge">
<title>CdkBottomSheetComponent&#45;&gt;SharedModule</title>
<path fill="none" stroke="black" d="M1155.38,-85.1C1155.38,-103.07 1155.38,-127.8 1155.38,-127.8 1155.38,-127.8 792.28,-127.8 792.28,-127.8"/>
<polygon fill="black" stroke="black" points="792.28,-124.3 782.28,-127.8 792.28,-131.3 792.28,-124.3"/>
</g>
<!-- FooterComponent -->
<g id="node3" class="node">
<title>FooterComponent</title>
<polygon fill="#ffffb3" stroke="black" points="1082.88,-84.8 965.12,-84.8 965.12,-48.8 1082.88,-48.8 1082.88,-84.8"/>
<text text-anchor="middle" x="1024" y="-62.6" font-family="Times,serif" font-size="14.00">FooterComponent</text>
</g>
<!-- FooterComponent&#45;&gt;SharedModule -->
<g id="edge3" class="edge">
<title>FooterComponent&#45;&gt;SharedModule</title>
<path fill="none" stroke="black" d="M987.88,-84.83C987.88,-101.2 987.88,-122.8 987.88,-122.8 987.88,-122.8 792.44,-122.8 792.44,-122.8"/>
<polygon fill="black" stroke="black" points="792.44,-119.3 782.44,-122.8 792.44,-126.3 792.44,-119.3"/>
</g>
<!-- HeaderComponent -->
<g id="node4" class="node">
<title>HeaderComponent</title>
<polygon fill="#ffffb3" stroke="black" points="946.74,-84.8 825.26,-84.8 825.26,-48.8 946.74,-48.8 946.74,-84.8"/>
<text text-anchor="middle" x="886" y="-62.6" font-family="Times,serif" font-size="14.00">HeaderComponent</text>
</g>
<!-- HeaderComponent&#45;&gt;SharedModule -->
<g id="edge4" class="edge">
<title>HeaderComponent&#45;&gt;SharedModule</title>
<path fill="none" stroke="black" d="M848.38,-84.99C848.38,-99.98 848.38,-118.8 848.38,-118.8 848.38,-118.8 792.26,-118.8 792.26,-118.8"/>
<polygon fill="black" stroke="black" points="792.26,-115.3 782.26,-118.8 792.26,-122.3 792.26,-115.3"/>
</g>
<!-- NotificationComponent -->
<g id="node5" class="node">
<title>NotificationComponent</title>
<polygon fill="#ffffb3" stroke="black" points="807.48,-84.8 658.52,-84.8 658.52,-48.8 807.48,-48.8 807.48,-84.8"/>
<text text-anchor="middle" x="733" y="-62.6" font-family="Times,serif" font-size="14.00">NotificationComponent</text>
</g>
<!-- NotificationComponent&#45;&gt;SharedModule -->
<g id="edge5" class="edge">
<title>NotificationComponent&#45;&gt;SharedModule</title>
<path fill="none" stroke="black" d="M733,-84.91C733,-84.91 733,-103.79 733,-103.79"/>
<polygon fill="black" stroke="black" points="729.5,-103.79 733,-113.79 736.5,-103.79 729.5,-103.79"/>
</g>
<!-- SidenavComponent -->
<g id="node6" class="node">
<title>SidenavComponent</title>
<polygon fill="#ffffb3" stroke="black" points="640.44,-84.8 513.56,-84.8 513.56,-48.8 640.44,-48.8 640.44,-84.8"/>
<text text-anchor="middle" x="577" y="-62.6" font-family="Times,serif" font-size="14.00">SidenavComponent</text>
</g>
<!-- SidenavComponent&#45;&gt;SharedModule -->
<g id="edge6" class="edge">
<title>SidenavComponent&#45;&gt;SharedModule</title>
<path fill="none" stroke="black" d="M607.99,-84.99C607.99,-99.98 607.99,-118.8 607.99,-118.8 607.99,-118.8 673.59,-118.8 673.59,-118.8"/>
<polygon fill="black" stroke="black" points="673.59,-122.3 683.59,-118.8 673.59,-115.3 673.59,-122.3"/>
</g>
<!-- SidenavInfoComponent -->
<g id="node7" class="node">
<title>SidenavInfoComponent</title>
<polygon fill="#ffffb3" stroke="black" points="495.76,-84.8 346.24,-84.8 346.24,-48.8 495.76,-48.8 495.76,-84.8"/>
<text text-anchor="middle" x="421" y="-62.6" font-family="Times,serif" font-size="14.00">SidenavInfoComponent</text>
</g>
<!-- SidenavInfoComponent&#45;&gt;SharedModule -->
<g id="edge7" class="edge">
<title>SidenavInfoComponent&#45;&gt;SharedModule</title>
<path fill="none" stroke="black" d="M461.96,-84.83C461.96,-101.2 461.96,-122.8 461.96,-122.8 461.96,-122.8 673.6,-122.8 673.6,-122.8"/>
<polygon fill="black" stroke="black" points="673.6,-126.3 683.6,-122.8 673.6,-119.3 673.6,-126.3"/>
</g>
<!-- StarRatingComponent -->
<g id="node8" class="node">
<title>StarRatingComponent</title>
<polygon fill="#ffffb3" stroke="black" points="328.71,-84.8 187.29,-84.8 187.29,-48.8 328.71,-48.8 328.71,-84.8"/>
<text text-anchor="middle" x="258" y="-62.6" font-family="Times,serif" font-size="14.00">StarRatingComponent</text>
</g>
<!-- StarRatingComponent&#45;&gt;SharedModule -->
<g id="edge8" class="edge">
<title>StarRatingComponent&#45;&gt;SharedModule</title>
<path fill="none" stroke="black" d="M292.49,-85.1C292.49,-103.07 292.49,-127.8 292.49,-127.8 292.49,-127.8 673.75,-127.8 673.75,-127.8"/>
<polygon fill="black" stroke="black" points="673.75,-131.3 683.75,-127.8 673.75,-124.3 673.75,-131.3"/>
</g>
<!-- ViewStatesComponent -->
<g id="node9" class="node">
<title>ViewStatesComponent</title>
<polygon fill="#ffffb3" stroke="black" points="169.59,-84.8 24.41,-84.8 24.41,-48.8 169.59,-48.8 169.59,-84.8"/>
<text text-anchor="middle" x="97" y="-62.6" font-family="Times,serif" font-size="14.00">ViewStatesComponent</text>
</g>
<!-- ViewStatesComponent&#45;&gt;SharedModule -->
<g id="edge9" class="edge">
<title>ViewStatesComponent&#45;&gt;SharedModule</title>
<path fill="none" stroke="black" d="M129.62,-84.91C129.62,-104.14 129.62,-131.8 129.62,-131.8 129.62,-131.8 673.62,-131.8 673.62,-131.8"/>
<polygon fill="black" stroke="black" points="673.62,-135.3 683.62,-131.8 673.62,-128.3 673.62,-135.3"/>
</g>
<!-- AnnouncementComponent  -->
<g id="node11" class="node">
<title>AnnouncementComponent </title>
<polygon fill="#fb8072" stroke="black" points="1398.36,-214.8 1227.64,-214.8 1227.64,-178.8 1398.36,-178.8 1398.36,-214.8"/>
<text text-anchor="middle" x="1313" y="-192.6" font-family="Times,serif" font-size="14.00">AnnouncementComponent </text>
</g>
<!-- SharedModule&#45;&gt;AnnouncementComponent  -->
<g id="edge10" class="edge">
<title>SharedModule&#45;&gt;AnnouncementComponent </title>
<path fill="none" stroke="black" stroke-dasharray="5,2" d="M782.42,-136.8C912.31,-136.8 1253.35,-136.8 1253.35,-136.8 1253.35,-136.8 1253.35,-168.8 1253.35,-168.8"/>
<polygon fill="black" stroke="black" points="1249.85,-168.8 1253.35,-178.8 1256.85,-168.8 1249.85,-168.8"/>
</g>
<!-- CdkBottomSheetComponent  -->
<g id="node12" class="node">
<title>CdkBottomSheetComponent </title>
<polygon fill="#fb8072" stroke="black" points="1209.78,-214.8 1028.22,-214.8 1028.22,-178.8 1209.78,-178.8 1209.78,-214.8"/>
<text text-anchor="middle" x="1119" y="-192.6" font-family="Times,serif" font-size="14.00">CdkBottomSheetComponent </text>
</g>
<!-- SharedModule&#45;&gt;CdkBottomSheetComponent  -->
<g id="edge11" class="edge">
<title>SharedModule&#45;&gt;CdkBottomSheetComponent </title>
<path fill="none" stroke="black" stroke-dasharray="5,2" d="M782.35,-140.8C872.74,-140.8 1055.65,-140.8 1055.65,-140.8 1055.65,-140.8 1055.65,-168.77 1055.65,-168.77"/>
<polygon fill="black" stroke="black" points="1052.15,-168.77 1055.65,-178.77 1059.15,-168.77 1052.15,-168.77"/>
</g>
<!-- FooterComponent  -->
<g id="node13" class="node">
<title>FooterComponent </title>
<polygon fill="#fb8072" stroke="black" points="1010.88,-214.8 889.12,-214.8 889.12,-178.8 1010.88,-178.8 1010.88,-214.8"/>
<text text-anchor="middle" x="950" y="-192.6" font-family="Times,serif" font-size="14.00">FooterComponent </text>
</g>
<!-- SharedModule&#45;&gt;FooterComponent  -->
<g id="edge12" class="edge">
<title>SharedModule&#45;&gt;FooterComponent </title>
<path fill="none" stroke="black" stroke-dasharray="5,2" d="M782.6,-145.8C837.43,-145.8 918.09,-145.8 918.09,-145.8 918.09,-145.8 918.09,-168.68 918.09,-168.68"/>
<polygon fill="black" stroke="black" points="914.59,-168.68 918.09,-178.68 921.59,-168.68 914.59,-168.68"/>
</g>
<!-- HeaderComponent  -->
<g id="node14" class="node">
<title>HeaderComponent </title>
<polygon fill="#fb8072" stroke="black" points="871.74,-214.8 746.26,-214.8 746.26,-178.8 871.74,-178.8 871.74,-214.8"/>
<text text-anchor="middle" x="809" y="-192.6" font-family="Times,serif" font-size="14.00">HeaderComponent </text>
</g>
<!-- SharedModule&#45;&gt;HeaderComponent  -->
<g id="edge13" class="edge">
<title>SharedModule&#45;&gt;HeaderComponent </title>
<path fill="none" stroke="black" stroke-dasharray="5,2" d="M764.29,-149.91C764.29,-149.91 764.29,-168.79 764.29,-168.79"/>
<polygon fill="black" stroke="black" points="760.79,-168.79 764.29,-178.79 767.79,-168.79 760.79,-168.79"/>
</g>
<!-- NotificationComponent  -->
<g id="node15" class="node">
<title>NotificationComponent </title>
<polygon fill="#fb8072" stroke="black" points="728.48,-214.8 575.52,-214.8 575.52,-178.8 728.48,-178.8 728.48,-214.8"/>
<text text-anchor="middle" x="652" y="-192.6" font-family="Times,serif" font-size="14.00">NotificationComponent </text>
</g>
<!-- SharedModule&#45;&gt;NotificationComponent  -->
<g id="edge14" class="edge">
<title>SharedModule&#45;&gt;NotificationComponent </title>
<path fill="none" stroke="black" stroke-dasharray="5,2" d="M706.01,-149.91C706.01,-149.91 706.01,-168.79 706.01,-168.79"/>
<polygon fill="black" stroke="black" points="702.51,-168.79 706.01,-178.79 709.51,-168.79 702.51,-168.79"/>
</g>
<!-- SidenavComponent  -->
<g id="node16" class="node">
<title>SidenavComponent </title>
<polygon fill="#fb8072" stroke="black" points="557.93,-214.8 428.07,-214.8 428.07,-178.8 557.93,-178.8 557.93,-214.8"/>
<text text-anchor="middle" x="493" y="-192.6" font-family="Times,serif" font-size="14.00">SidenavComponent </text>
</g>
<!-- SharedModule&#45;&gt;SidenavComponent  -->
<g id="edge15" class="edge">
<title>SharedModule&#45;&gt;SidenavComponent </title>
<path fill="none" stroke="black" stroke-dasharray="5,2" d="M683.77,-145.8C625.38,-145.8 535.88,-145.8 535.88,-145.8 535.88,-145.8 535.88,-168.68 535.88,-168.68"/>
<polygon fill="black" stroke="black" points="532.38,-168.68 535.88,-178.68 539.38,-168.68 532.38,-168.68"/>
</g>
<!-- SidenavInfoComponent  -->
<g id="node17" class="node">
<title>SidenavInfoComponent </title>
<polygon fill="#fb8072" stroke="black" points="409.76,-214.8 256.24,-214.8 256.24,-178.8 409.76,-178.8 409.76,-214.8"/>
<text text-anchor="middle" x="333" y="-192.6" font-family="Times,serif" font-size="14.00">SidenavInfoComponent </text>
</g>
<!-- SharedModule&#45;&gt;SidenavInfoComponent  -->
<g id="edge16" class="edge">
<title>SharedModule&#45;&gt;SidenavInfoComponent </title>
<path fill="none" stroke="black" stroke-dasharray="5,2" d="M683.62,-140.8C586.04,-140.8 377.88,-140.8 377.88,-140.8 377.88,-140.8 377.88,-168.77 377.88,-168.77"/>
<polygon fill="black" stroke="black" points="374.38,-168.77 377.88,-178.77 381.38,-168.77 374.38,-168.77"/>
</g>
<!-- ViewStatesComponent  -->
<g id="node18" class="node">
<title>ViewStatesComponent </title>
<polygon fill="#fb8072" stroke="black" points="238.09,-214.8 89.91,-214.8 89.91,-178.8 238.09,-178.8 238.09,-214.8"/>
<text text-anchor="middle" x="164" y="-192.6" font-family="Times,serif" font-size="14.00">ViewStatesComponent </text>
</g>
<!-- SharedModule&#45;&gt;ViewStatesComponent  -->
<g id="edge17" class="edge">
<title>SharedModule&#45;&gt;ViewStatesComponent </title>
<path fill="none" stroke="black" stroke-dasharray="5,2" d="M683.6,-136.8C553.76,-136.8 212.84,-136.8 212.84,-136.8 212.84,-136.8 212.84,-168.8 212.84,-168.8"/>
<polygon fill="black" stroke="black" points="209.34,-168.8 212.84,-178.8 216.34,-168.8 209.34,-168.8"/>
</g>
</g>
</svg>
