<?xml version="1.0" encoding="UTF-8" standalone="no"?>
<!DOCTYPE svg PUBLIC "-//W3C//DTD SVG 1.1//EN"
 "http://www.w3.org/Graphics/SVG/1.1/DTD/svg11.dtd">
<!-- Generated by graphviz version 2.47.3 (20210619.1520)
 -->
<!-- Title: dependencies Pages: 1 -->
<svg width="342pt" height="174pt"
 viewBox="0.00 0.00 342.00 173.80" xmlns="http://www.w3.org/2000/svg" xmlns:xlink="http://www.w3.org/1999/xlink">
<g id="graph0" class="graph" transform="scale(1 1) rotate(0) translate(4 169.8)">
<title>dependencies</title>
<polygon fill="white" stroke="transparent" points="-4,4 -4,-169.8 338,-169.8 338,4 -4,4"/>
<text text-anchor="middle" x="167" y="-8.2" font-family="sans-serif" font-size="14.00">dependencies</text>
<g id="clust1" class="cluster">
<title>cluster_ProfileModule</title>
<polygon fill="none" stroke="black" stroke-dasharray="1,5" points="8,-32.8 8,-157.8 326,-157.8 326,-32.8 8,-32.8"/>
</g>
<g id="clust2" class="cluster">
<title>cluster_ProfileModule_declarations</title>
<polygon fill="none" stroke="black" points="182,-40.8 182,-92.8 318,-92.8 318,-40.8 182,-40.8"/>
</g>
<g id="clust4" class="cluster">
<title>cluster_ProfileModule_imports</title>
<polygon fill="none" stroke="black" points="16,-40.8 16,-92.8 174,-92.8 174,-40.8 16,-40.8"/>
</g>
<!-- ProfileComponent -->
<g id="node1" class="node">
<title>ProfileComponent</title>
<polygon fill="#ffffb3" stroke="black" points="309.93,-84.8 190.07,-84.8 190.07,-48.8 309.93,-48.8 309.93,-84.8"/>
<text text-anchor="middle" x="250" y="-62.6" font-family="Times,serif" font-size="14.00">ProfileComponent</text>
</g>
<!-- ProfileModule -->
<g id="node2" class="node">
<title>ProfileModule</title>
<polygon fill="#8dd3c7" stroke="black" points="220.65,-149.8 217.65,-153.8 196.65,-153.8 193.65,-149.8 123.35,-149.8 123.35,-113.8 220.65,-113.8 220.65,-149.8"/>
<text text-anchor="middle" x="172" y="-127.6" font-family="Times,serif" font-size="14.00">ProfileModule</text>
</g>
<!-- ProfileComponent&#45;&gt;ProfileModule -->
<g id="edge1" class="edge">
<title>ProfileComponent&#45;&gt;ProfileModule</title>
<path fill="none" stroke="black" d="M205.55,-84.91C205.55,-84.91 205.55,-103.79 205.55,-103.79"/>
<polygon fill="black" stroke="black" points="202.05,-103.79 205.55,-113.79 209.05,-103.79 202.05,-103.79"/>
</g>
<!-- ProfileRoutingModule -->
<g id="node3" class="node">
<title>ProfileRoutingModule</title>
<polygon fill="#8dd3c7" stroke="black" points="166.27,-84.8 163.27,-88.8 142.27,-88.8 139.27,-84.8 23.73,-84.8 23.73,-48.8 166.27,-48.8 166.27,-84.8"/>
<text text-anchor="middle" x="95" y="-62.6" font-family="Times,serif" font-size="14.00">ProfileRoutingModule</text>
</g>
<!-- ProfileRoutingModule&#45;&gt;ProfileModule -->
<g id="edge2" class="edge">
<title>ProfileRoutingModule&#45;&gt;ProfileModule</title>
<path fill="none" stroke="black" d="M144.78,-84.91C144.78,-84.91 144.78,-103.79 144.78,-103.79"/>
<polygon fill="black" stroke="black" points="141.28,-103.79 144.78,-113.79 148.28,-103.79 141.28,-103.79"/>
</g>
</g>
</svg>
