<?xml version="1.0" encoding="UTF-8" standalone="no"?>
<!DOCTYPE svg PUBLIC "-//W3C//DTD SVG 1.1//EN"
 "http://www.w3.org/Graphics/SVG/1.1/DTD/svg11.dtd">
<!-- Generated by graphviz version 2.47.3 (20210619.1520)
 -->
<!-- Title: dependencies Pages: 1 -->
<svg width="324pt" height="174pt"
 viewBox="0.00 0.00 324.00 173.80" xmlns="http://www.w3.org/2000/svg" xmlns:xlink="http://www.w3.org/1999/xlink">
<g id="graph0" class="graph" transform="scale(1 1) rotate(0) translate(4 169.8)">
<title>dependencies</title>
<polygon fill="white" stroke="transparent" points="-4,4 -4,-169.8 320,-169.8 320,4 -4,4"/>
<text text-anchor="middle" x="158" y="-8.2" font-family="sans-serif" font-size="14.00">dependencies</text>
<g id="clust1" class="cluster">
<title>cluster_ErrorModule</title>
<polygon fill="none" stroke="black" stroke-dasharray="1,5" points="8,-32.8 8,-157.8 308,-157.8 308,-32.8 8,-32.8"/>
</g>
<g id="clust2" class="cluster">
<title>cluster_ErrorModule_declarations</title>
<polygon fill="none" stroke="black" points="174,-40.8 174,-92.8 300,-92.8 300,-40.8 174,-40.8"/>
</g>
<g id="clust4" class="cluster">
<title>cluster_ErrorModule_imports</title>
<polygon fill="none" stroke="black" points="16,-40.8 16,-92.8 166,-92.8 166,-40.8 16,-40.8"/>
</g>
<!-- ErrorComponent -->
<g id="node1" class="node">
<title>ErrorComponent</title>
<polygon fill="#ffffb3" stroke="black" points="292.37,-84.8 181.63,-84.8 181.63,-48.8 292.37,-48.8 292.37,-84.8"/>
<text text-anchor="middle" x="237" y="-62.6" font-family="Times,serif" font-size="14.00">ErrorComponent</text>
</g>
<!-- ErrorModule -->
<g id="node2" class="node">
<title>ErrorModule</title>
<polygon fill="#8dd3c7" stroke="black" points="208.58,-149.8 205.58,-153.8 184.58,-153.8 181.58,-149.8 119.42,-149.8 119.42,-113.8 208.58,-113.8 208.58,-149.8"/>
<text text-anchor="middle" x="164" y="-127.6" font-family="Times,serif" font-size="14.00">ErrorModule</text>
</g>
<!-- ErrorComponent&#45;&gt;ErrorModule -->
<g id="edge1" class="edge">
<title>ErrorComponent&#45;&gt;ErrorModule</title>
<path fill="none" stroke="black" d="M195.05,-84.91C195.05,-84.91 195.05,-103.79 195.05,-103.79"/>
<polygon fill="black" stroke="black" points="191.55,-103.79 195.05,-113.79 198.55,-103.79 191.55,-103.79"/>
</g>
<!-- ErrorRoutingModule -->
<g id="node3" class="node">
<title>ErrorRoutingModule</title>
<polygon fill="#8dd3c7" stroke="black" points="158.2,-84.8 155.2,-88.8 134.2,-88.8 131.2,-84.8 23.8,-84.8 23.8,-48.8 158.2,-48.8 158.2,-84.8"/>
<text text-anchor="middle" x="91" y="-62.6" font-family="Times,serif" font-size="14.00">ErrorRoutingModule</text>
</g>
<!-- ErrorRoutingModule&#45;&gt;ErrorModule -->
<g id="edge2" class="edge">
<title>ErrorRoutingModule&#45;&gt;ErrorModule</title>
<path fill="none" stroke="black" d="M138.78,-84.91C138.78,-84.91 138.78,-103.79 138.78,-103.79"/>
<polygon fill="black" stroke="black" points="135.28,-103.79 138.78,-113.79 142.28,-103.79 135.28,-103.79"/>
</g>
</g>
</svg>
