<?xml version="1.0" encoding="UTF-8" standalone="no"?>
<!DOCTYPE svg PUBLIC "-//W3C//DTD SVG 1.1//EN"
 "http://www.w3.org/Graphics/SVG/1.1/DTD/svg11.dtd">
<!-- Generated by graphviz version 2.47.3 (20210619.1520)
 -->
<!-- Title: dependencies Pages: 1 -->
<svg width="894pt" height="247pt"
 viewBox="0.00 0.00 894.00 246.80" xmlns="http://www.w3.org/2000/svg" xmlns:xlink="http://www.w3.org/1999/xlink">
<g id="graph0" class="graph" transform="scale(1 1) rotate(0) translate(4 242.8)">
<title>dependencies</title>
<polygon fill="white" stroke="transparent" points="-4,4 -4,-242.8 890,-242.8 890,4 -4,4"/>
<text text-anchor="middle" x="443" y="-8.2" font-family="sans-serif" font-size="14.00">dependencies</text>
<g id="clust1" class="cluster">
<title>cluster_DatatableModule</title>
<polygon fill="none" stroke="black" stroke-dasharray="1,5" points="8,-32.8 8,-230.8 878,-230.8 878,-32.8 8,-32.8"/>
</g>
<g id="clust7" class="cluster">
<title>cluster_DatatableModule_imports</title>
<polygon fill="none" stroke="black" points="756,-40.8 756,-92.8 870,-92.8 870,-40.8 756,-40.8"/>
</g>
<g id="clust8" class="cluster">
<title>cluster_DatatableModule_exports</title>
<polygon fill="none" stroke="black" points="70,-170.8 70,-222.8 816,-222.8 816,-170.8 70,-170.8"/>
</g>
<g id="clust2" class="cluster">
<title>cluster_DatatableModule_declarations</title>
<polygon fill="none" stroke="black" points="16,-40.8 16,-92.8 748,-92.8 748,-40.8 16,-40.8"/>
</g>
<!-- CdkDetailRowDirective -->
<g id="node1" class="node">
<title>CdkDetailRowDirective</title>
<polygon fill="#ffffb3" stroke="black" points="740.07,-84.8 587.93,-84.8 587.93,-48.8 740.07,-48.8 740.07,-84.8"/>
<text text-anchor="middle" x="664" y="-62.6" font-family="Times,serif" font-size="14.00">CdkDetailRowDirective</text>
</g>
<!-- DatatableModule -->
<g id="node5" class="node">
<title>DatatableModule</title>
<polygon fill="#8dd3c7" stroke="black" points="558.69,-149.8 555.69,-153.8 534.69,-153.8 531.69,-149.8 445.31,-149.8 445.31,-113.8 558.69,-113.8 558.69,-149.8"/>
<text text-anchor="middle" x="502" y="-127.6" font-family="Times,serif" font-size="14.00">DatatableModule</text>
</g>
<!-- CdkDetailRowDirective&#45;&gt;DatatableModule -->
<g id="edge1" class="edge">
<title>CdkDetailRowDirective&#45;&gt;DatatableModule</title>
<path fill="none" stroke="black" d="M611.1,-84.83C611.1,-101.2 611.1,-122.8 611.1,-122.8 611.1,-122.8 568.79,-122.8 568.79,-122.8"/>
<polygon fill="black" stroke="black" points="568.79,-119.3 558.79,-122.8 568.79,-126.3 568.79,-119.3"/>
</g>
<!-- DatatableComponent -->
<g id="node2" class="node">
<title>DatatableComponent</title>
<polygon fill="#ffffb3" stroke="black" points="569.47,-84.8 434.53,-84.8 434.53,-48.8 569.47,-48.8 569.47,-84.8"/>
<text text-anchor="middle" x="502" y="-62.6" font-family="Times,serif" font-size="14.00">DatatableComponent</text>
</g>
<!-- DatatableComponent&#45;&gt;DatatableModule -->
<g id="edge2" class="edge">
<title>DatatableComponent&#45;&gt;DatatableModule</title>
<path fill="none" stroke="black" d="M502,-84.91C502,-84.91 502,-103.79 502,-103.79"/>
<polygon fill="black" stroke="black" points="498.5,-103.79 502,-113.79 505.5,-103.79 498.5,-103.79"/>
</g>
<!-- DatatableDetailRowComponent -->
<g id="node3" class="node">
<title>DatatableDetailRowComponent</title>
<polygon fill="#ffffb3" stroke="black" points="416.62,-84.8 221.38,-84.8 221.38,-48.8 416.62,-48.8 416.62,-84.8"/>
<text text-anchor="middle" x="319" y="-62.6" font-family="Times,serif" font-size="14.00">DatatableDetailRowComponent</text>
</g>
<!-- DatatableDetailRowComponent&#45;&gt;DatatableModule -->
<g id="edge3" class="edge">
<title>DatatableDetailRowComponent&#45;&gt;DatatableModule</title>
<path fill="none" stroke="black" d="M347.62,-84.83C347.62,-101.2 347.62,-122.8 347.62,-122.8 347.62,-122.8 435.39,-122.8 435.39,-122.8"/>
<polygon fill="black" stroke="black" points="435.39,-126.3 445.39,-122.8 435.39,-119.3 435.39,-126.3"/>
</g>
<!-- DatatableToolbarComponent -->
<g id="node4" class="node">
<title>DatatableToolbarComponent</title>
<polygon fill="#ffffb3" stroke="black" points="203.79,-84.8 24.21,-84.8 24.21,-48.8 203.79,-48.8 203.79,-84.8"/>
<text text-anchor="middle" x="114" y="-62.6" font-family="Times,serif" font-size="14.00">DatatableToolbarComponent</text>
</g>
<!-- DatatableToolbarComponent&#45;&gt;DatatableModule -->
<g id="edge4" class="edge">
<title>DatatableToolbarComponent&#45;&gt;DatatableModule</title>
<path fill="none" stroke="black" d="M140.62,-84.91C140.62,-104.14 140.62,-131.8 140.62,-131.8 140.62,-131.8 435.14,-131.8 435.14,-131.8"/>
<polygon fill="black" stroke="black" points="435.14,-135.3 445.14,-131.8 435.14,-128.3 435.14,-135.3"/>
</g>
<!-- CdkDetailRowDirective  -->
<g id="node7" class="node">
<title>CdkDetailRowDirective </title>
<polygon fill="#fb8072" stroke="black" points="807.57,-214.8 652.43,-214.8 652.43,-178.8 807.57,-178.8 807.57,-214.8"/>
<text text-anchor="middle" x="730" y="-192.6" font-family="Times,serif" font-size="14.00">CdkDetailRowDirective </text>
</g>
<!-- DatatableModule&#45;&gt;CdkDetailRowDirective  -->
<g id="edge6" class="edge">
<title>DatatableModule&#45;&gt;CdkDetailRowDirective </title>
<path fill="none" stroke="black" stroke-dasharray="5,2" d="M558.67,-140.8C615.97,-140.8 696.12,-140.8 696.12,-140.8 696.12,-140.8 696.12,-168.77 696.12,-168.77"/>
<polygon fill="black" stroke="black" points="692.63,-168.77 696.12,-178.77 699.63,-168.77 692.63,-168.77"/>
</g>
<!-- DatatableComponent  -->
<g id="node8" class="node">
<title>DatatableComponent </title>
<polygon fill="#fb8072" stroke="black" points="634.47,-214.8 495.53,-214.8 495.53,-178.8 634.47,-178.8 634.47,-214.8"/>
<text text-anchor="middle" x="565" y="-192.6" font-family="Times,serif" font-size="14.00">DatatableComponent </text>
</g>
<!-- DatatableModule&#45;&gt;DatatableComponent  -->
<g id="edge7" class="edge">
<title>DatatableModule&#45;&gt;DatatableComponent </title>
<path fill="none" stroke="black" stroke-dasharray="5,2" d="M527.18,-149.91C527.18,-149.91 527.18,-168.79 527.18,-168.79"/>
<polygon fill="black" stroke="black" points="523.68,-168.79 527.18,-178.79 530.68,-168.79 523.68,-168.79"/>
</g>
<!-- DatatableDetailRowComponent  -->
<g id="node9" class="node">
<title>DatatableDetailRowComponent </title>
<polygon fill="#fb8072" stroke="black" points="477.62,-214.8 278.38,-214.8 278.38,-178.8 477.62,-178.8 477.62,-214.8"/>
<text text-anchor="middle" x="378" y="-192.6" font-family="Times,serif" font-size="14.00">DatatableDetailRowComponent </text>
</g>
<!-- DatatableModule&#45;&gt;DatatableDetailRowComponent  -->
<g id="edge8" class="edge">
<title>DatatableModule&#45;&gt;DatatableDetailRowComponent </title>
<path fill="none" stroke="black" stroke-dasharray="5,2" d="M461.48,-149.91C461.48,-149.91 461.48,-168.79 461.48,-168.79"/>
<polygon fill="black" stroke="black" points="457.98,-168.79 461.48,-178.79 464.98,-168.79 457.98,-168.79"/>
</g>
<!-- DatatableToolbarComponent  -->
<g id="node10" class="node">
<title>DatatableToolbarComponent </title>
<polygon fill="#fb8072" stroke="black" points="260.29,-214.8 77.71,-214.8 77.71,-178.8 260.29,-178.8 260.29,-214.8"/>
<text text-anchor="middle" x="169" y="-192.6" font-family="Times,serif" font-size="14.00">DatatableToolbarComponent </text>
</g>
<!-- DatatableModule&#45;&gt;DatatableToolbarComponent  -->
<g id="edge9" class="edge">
<title>DatatableModule&#45;&gt;DatatableToolbarComponent </title>
<path fill="none" stroke="black" stroke-dasharray="5,2" d="M445.32,-140.8C368.5,-140.8 240.79,-140.8 240.79,-140.8 240.79,-140.8 240.79,-168.77 240.79,-168.77"/>
<polygon fill="black" stroke="black" points="237.29,-168.77 240.79,-178.77 244.29,-168.77 237.29,-168.77"/>
</g>
<!-- SharedModule -->
<g id="node6" class="node">
<title>SharedModule</title>
<polygon fill="#8dd3c7" stroke="black" points="862.42,-84.8 859.42,-88.8 838.42,-88.8 835.42,-84.8 763.58,-84.8 763.58,-48.8 862.42,-48.8 862.42,-84.8"/>
<text text-anchor="middle" x="813" y="-62.6" font-family="Times,serif" font-size="14.00">SharedModule</text>
</g>
<!-- SharedModule&#45;&gt;DatatableModule -->
<g id="edge5" class="edge">
<title>SharedModule&#45;&gt;DatatableModule</title>
<path fill="none" stroke="black" d="M785.79,-84.91C785.79,-104.14 785.79,-131.8 785.79,-131.8 785.79,-131.8 568.75,-131.8 568.75,-131.8"/>
<polygon fill="black" stroke="black" points="568.75,-128.3 558.75,-131.8 568.75,-135.3 568.75,-128.3"/>
</g>
</g>
</svg>
