<?xml version="1.0" encoding="UTF-8" standalone="no"?>
<!DOCTYPE svg PUBLIC "-//W3C//DTD SVG 1.1//EN"
 "http://www.w3.org/Graphics/SVG/1.1/DTD/svg11.dtd">
<!-- Generated by graphviz version 2.47.3 (20210619.1520)
 -->
<!-- Title: dependencies Pages: 1 -->
<svg width="498pt" height="174pt"
 viewBox="0.00 0.00 498.00 173.80" xmlns="http://www.w3.org/2000/svg" xmlns:xlink="http://www.w3.org/1999/xlink">
<g id="graph0" class="graph" transform="scale(1 1) rotate(0) translate(4 169.8)">
<title>dependencies</title>
<polygon fill="white" stroke="transparent" points="-4,4 -4,-169.8 494,-169.8 494,4 -4,4"/>
<text text-anchor="middle" x="245" y="-8.2" font-family="sans-serif" font-size="14.00">dependencies</text>
<g id="clust1" class="cluster">
<title>cluster_PlanningModule</title>
<polygon fill="none" stroke="black" stroke-dasharray="1,5" points="8,-32.8 8,-157.8 482,-157.8 482,-32.8 8,-32.8"/>
</g>
<g id="clust2" class="cluster">
<title>cluster_PlanningModule_declarations</title>
<polygon fill="none" stroke="black" points="326,-40.8 326,-92.8 474,-92.8 474,-40.8 326,-40.8"/>
</g>
<g id="clust4" class="cluster">
<title>cluster_PlanningModule_imports</title>
<polygon fill="none" stroke="black" points="16,-40.8 16,-92.8 318,-92.8 318,-40.8 16,-40.8"/>
</g>
<!-- PlanningComponent -->
<g id="node1" class="node">
<title>PlanningComponent</title>
<polygon fill="#ffffb3" stroke="black" points="465.61,-84.8 334.39,-84.8 334.39,-48.8 465.61,-48.8 465.61,-84.8"/>
<text text-anchor="middle" x="400" y="-62.6" font-family="Times,serif" font-size="14.00">PlanningComponent</text>
</g>
<!-- PlanningModule -->
<g id="node2" class="node">
<title>PlanningModule</title>
<polygon fill="#8dd3c7" stroke="black" points="307.83,-149.8 304.83,-153.8 283.83,-153.8 280.83,-149.8 198.17,-149.8 198.17,-113.8 307.83,-113.8 307.83,-149.8"/>
<text text-anchor="middle" x="253" y="-127.6" font-family="Times,serif" font-size="14.00">PlanningModule</text>
</g>
<!-- PlanningComponent&#45;&gt;PlanningModule -->
<g id="edge1" class="edge">
<title>PlanningComponent&#45;&gt;PlanningModule</title>
<path fill="none" stroke="black" d="M400,-84.91C400,-104.14 400,-131.8 400,-131.8 400,-131.8 317.74,-131.8 317.74,-131.8"/>
<polygon fill="black" stroke="black" points="317.74,-128.3 307.74,-131.8 317.74,-135.3 317.74,-128.3"/>
</g>
<!-- DatatableModule -->
<g id="node3" class="node">
<title>DatatableModule</title>
<polygon fill="#8dd3c7" stroke="black" points="309.69,-84.8 306.69,-88.8 285.69,-88.8 282.69,-84.8 196.31,-84.8 196.31,-48.8 309.69,-48.8 309.69,-84.8"/>
<text text-anchor="middle" x="253" y="-62.6" font-family="Times,serif" font-size="14.00">DatatableModule</text>
</g>
<!-- DatatableModule&#45;&gt;PlanningModule -->
<g id="edge2" class="edge">
<title>DatatableModule&#45;&gt;PlanningModule</title>
<path fill="none" stroke="black" d="M253,-84.91C253,-84.91 253,-103.79 253,-103.79"/>
<polygon fill="black" stroke="black" points="249.5,-103.79 253,-113.79 256.5,-103.79 249.5,-103.79"/>
</g>
<!-- PlanningRoutingModule -->
<g id="node4" class="node">
<title>PlanningRoutingModule</title>
<polygon fill="#8dd3c7" stroke="black" points="178.45,-84.8 175.45,-88.8 154.45,-88.8 151.45,-84.8 23.55,-84.8 23.55,-48.8 178.45,-48.8 178.45,-84.8"/>
<text text-anchor="middle" x="101" y="-62.6" font-family="Times,serif" font-size="14.00">PlanningRoutingModule</text>
</g>
<!-- PlanningRoutingModule&#45;&gt;PlanningModule -->
<g id="edge3" class="edge">
<title>PlanningRoutingModule&#45;&gt;PlanningModule</title>
<path fill="none" stroke="black" d="M101,-84.91C101,-104.14 101,-131.8 101,-131.8 101,-131.8 188.12,-131.8 188.12,-131.8"/>
<polygon fill="black" stroke="black" points="188.12,-135.3 198.12,-131.8 188.12,-128.3 188.12,-135.3"/>
</g>
</g>
</svg>
