<?xml version="1.0" encoding="UTF-8" standalone="no"?>
<!DOCTYPE svg PUBLIC "-//W3C//DTD SVG 1.1//EN"
 "http://www.w3.org/Graphics/SVG/1.1/DTD/svg11.dtd">
<!-- Generated by graphviz version 2.47.3 (20210619.1520)
 -->
<!-- Title: dependencies Pages: 1 -->
<svg width="316pt" height="174pt"
 viewBox="0.00 0.00 316.00 173.80" xmlns="http://www.w3.org/2000/svg" xmlns:xlink="http://www.w3.org/1999/xlink">
<g id="graph0" class="graph" transform="scale(1 1) rotate(0) translate(4 169.8)">
<title>dependencies</title>
<polygon fill="white" stroke="transparent" points="-4,4 -4,-169.8 312,-169.8 312,4 -4,4"/>
<text text-anchor="middle" x="154" y="-8.2" font-family="sans-serif" font-size="14.00">dependencies</text>
<g id="clust1" class="cluster">
<title>cluster_TipsModule</title>
<polygon fill="none" stroke="black" stroke-dasharray="1,5" points="8,-32.8 8,-157.8 300,-157.8 300,-32.8 8,-32.8"/>
</g>
<g id="clust4" class="cluster">
<title>cluster_TipsModule_imports</title>
<polygon fill="none" stroke="black" points="146,-40.8 146,-92.8 292,-92.8 292,-40.8 146,-40.8"/>
</g>
<g id="clust2" class="cluster">
<title>cluster_TipsModule_declarations</title>
<polygon fill="none" stroke="black" points="16,-40.8 16,-92.8 138,-92.8 138,-40.8 16,-40.8"/>
</g>
<!-- TipsComponent -->
<g id="node1" class="node">
<title>TipsComponent</title>
<polygon fill="#ffffb3" stroke="black" points="130.22,-84.8 23.78,-84.8 23.78,-48.8 130.22,-48.8 130.22,-84.8"/>
<text text-anchor="middle" x="77" y="-62.6" font-family="Times,serif" font-size="14.00">TipsComponent</text>
</g>
<!-- TipsModule -->
<g id="node2" class="node">
<title>TipsModule</title>
<polygon fill="#8dd3c7" stroke="black" points="190.44,-149.8 187.44,-153.8 166.44,-153.8 163.44,-149.8 105.56,-149.8 105.56,-113.8 190.44,-113.8 190.44,-149.8"/>
<text text-anchor="middle" x="148" y="-127.6" font-family="Times,serif" font-size="14.00">TipsModule</text>
</g>
<!-- TipsComponent&#45;&gt;TipsModule -->
<g id="edge1" class="edge">
<title>TipsComponent&#45;&gt;TipsModule</title>
<path fill="none" stroke="black" d="M117.95,-84.91C117.95,-84.91 117.95,-103.79 117.95,-103.79"/>
<polygon fill="black" stroke="black" points="114.45,-103.79 117.95,-113.79 121.45,-103.79 114.45,-103.79"/>
</g>
<!-- TipsRoutingModule -->
<g id="node3" class="node">
<title>TipsRoutingModule</title>
<polygon fill="#8dd3c7" stroke="black" points="283.56,-84.8 280.56,-88.8 259.56,-88.8 256.56,-84.8 154.44,-84.8 154.44,-48.8 283.56,-48.8 283.56,-84.8"/>
<text text-anchor="middle" x="219" y="-62.6" font-family="Times,serif" font-size="14.00">TipsRoutingModule</text>
</g>
<!-- TipsRoutingModule&#45;&gt;TipsModule -->
<g id="edge2" class="edge">
<title>TipsRoutingModule&#45;&gt;TipsModule</title>
<path fill="none" stroke="black" d="M172.22,-84.91C172.22,-84.91 172.22,-103.79 172.22,-103.79"/>
<polygon fill="black" stroke="black" points="168.72,-103.79 172.22,-113.79 175.72,-103.79 168.72,-103.79"/>
</g>
</g>
</svg>
