<?xml version="1.0" encoding="UTF-8" standalone="no"?>
<!DOCTYPE svg PUBLIC "-//W3C//DTD SVG 1.1//EN"
 "http://www.w3.org/Graphics/SVG/1.1/DTD/svg11.dtd">
<!-- Generated by graphviz version 2.47.3 (20210619.1520)
 -->
<!-- Title: dependencies Pages: 1 -->
<svg width="320pt" height="174pt"
 viewBox="0.00 0.00 320.00 173.80" xmlns="http://www.w3.org/2000/svg" xmlns:xlink="http://www.w3.org/1999/xlink">
<g id="graph0" class="graph" transform="scale(1 1) rotate(0) translate(4 169.8)">
<title>dependencies</title>
<polygon fill="white" stroke="transparent" points="-4,4 -4,-169.8 316,-169.8 316,4 -4,4"/>
<text text-anchor="middle" x="156" y="-8.2" font-family="sans-serif" font-size="14.00">dependencies</text>
<g id="clust1" class="cluster">
<title>cluster_HelpModule</title>
<polygon fill="none" stroke="black" stroke-dasharray="1,5" points="8,-32.8 8,-157.8 304,-157.8 304,-32.8 8,-32.8"/>
</g>
<g id="clust4" class="cluster">
<title>cluster_HelpModule_imports</title>
<polygon fill="none" stroke="black" points="148,-40.8 148,-92.8 296,-92.8 296,-40.8 148,-40.8"/>
</g>
<g id="clust2" class="cluster">
<title>cluster_HelpModule_declarations</title>
<polygon fill="none" stroke="black" points="16,-40.8 16,-92.8 140,-92.8 140,-40.8 16,-40.8"/>
</g>
<!-- HelpComponent -->
<g id="node1" class="node">
<title>HelpComponent</title>
<polygon fill="#ffffb3" stroke="black" points="132.05,-84.8 23.95,-84.8 23.95,-48.8 132.05,-48.8 132.05,-84.8"/>
<text text-anchor="middle" x="78" y="-62.6" font-family="Times,serif" font-size="14.00">HelpComponent</text>
</g>
<!-- HelpModule -->
<g id="node2" class="node">
<title>HelpModule</title>
<polygon fill="#8dd3c7" stroke="black" points="193.26,-149.8 190.26,-153.8 169.26,-153.8 166.26,-149.8 106.74,-149.8 106.74,-113.8 193.26,-113.8 193.26,-149.8"/>
<text text-anchor="middle" x="150" y="-127.6" font-family="Times,serif" font-size="14.00">HelpModule</text>
</g>
<!-- HelpComponent&#45;&gt;HelpModule -->
<g id="edge1" class="edge">
<title>HelpComponent&#45;&gt;HelpModule</title>
<path fill="none" stroke="black" d="M119.45,-84.91C119.45,-84.91 119.45,-103.79 119.45,-103.79"/>
<polygon fill="black" stroke="black" points="115.95,-103.79 119.45,-113.79 122.95,-103.79 115.95,-103.79"/>
</g>
<!-- HelpRoutingModule -->
<g id="node3" class="node">
<title>HelpRoutingModule</title>
<polygon fill="#8dd3c7" stroke="black" points="287.88,-84.8 284.88,-88.8 263.88,-88.8 260.88,-84.8 156.12,-84.8 156.12,-48.8 287.88,-48.8 287.88,-84.8"/>
<text text-anchor="middle" x="222" y="-62.6" font-family="Times,serif" font-size="14.00">HelpRoutingModule</text>
</g>
<!-- HelpRoutingModule&#45;&gt;HelpModule -->
<g id="edge2" class="edge">
<title>HelpRoutingModule&#45;&gt;HelpModule</title>
<path fill="none" stroke="black" d="M174.72,-84.91C174.72,-84.91 174.72,-103.79 174.72,-103.79"/>
<polygon fill="black" stroke="black" points="171.22,-103.79 174.72,-113.79 178.22,-103.79 171.22,-103.79"/>
</g>
</g>
</svg>
