<?xml version="1.0" encoding="UTF-8" standalone="no"?>
<!DOCTYPE svg PUBLIC "-//W3C//DTD SVG 1.1//EN"
 "http://www.w3.org/Graphics/SVG/1.1/DTD/svg11.dtd">
<!-- Generated by graphviz version 2.47.3 (20210619.1520)
 -->
<!-- Title: dependencies Pages: 1 -->
<svg width="1077pt" height="247pt"
 viewBox="0.00 0.00 1077.00 246.80" xmlns="http://www.w3.org/2000/svg" xmlns:xlink="http://www.w3.org/1999/xlink">
<g id="graph0" class="graph" transform="scale(1 1) rotate(0) translate(4 242.8)">
<title>dependencies</title>
<polygon fill="white" stroke="transparent" points="-4,4 -4,-242.8 1073,-242.8 1073,4 -4,4"/>
<text text-anchor="middle" x="534.5" y="-8.2" font-family="sans-serif" font-size="14.00">dependencies</text>
<g id="clust1" class="cluster">
<title>cluster_AppModule</title>
<polygon fill="none" stroke="black" stroke-dasharray="1,5" points="8,-32.8 8,-230.8 1061,-230.8 1061,-32.8 8,-32.8"/>
</g>
<g id="clust6" class="cluster">
<title>cluster_AppModule_imports</title>
<polygon fill="none" stroke="black" points="792,-40.8 792,-92.8 1053,-92.8 1053,-40.8 792,-40.8"/>
</g>
<g id="clust8" class="cluster">
<title>cluster_AppModule_bootstrap</title>
<polygon fill="none" stroke="black" points="485,-170.8 485,-222.8 609,-222.8 609,-170.8 485,-170.8"/>
</g>
<g id="clust9" class="cluster">
<title>cluster_AppModule_providers</title>
<polygon fill="none" stroke="black" points="472,-40.8 472,-92.8 784,-92.8 784,-40.8 472,-40.8"/>
</g>
<g id="clust2" class="cluster">
<title>cluster_AppModule_declarations</title>
<polygon fill="none" stroke="black" points="16,-40.8 16,-92.8 464,-92.8 464,-40.8 16,-40.8"/>
</g>
<!-- AppComponent -->
<g id="node1" class="node">
<title>AppComponent</title>
<polygon fill="#ffffb3" stroke="black" points="455.94,-84.8 350.06,-84.8 350.06,-48.8 455.94,-48.8 455.94,-84.8"/>
<text text-anchor="middle" x="403" y="-62.6" font-family="Times,serif" font-size="14.00">AppComponent</text>
</g>
<!-- AppModule -->
<g id="node4" class="node">
<title>AppModule</title>
<polygon fill="#8dd3c7" stroke="black" points="588.66,-149.8 585.66,-153.8 564.66,-153.8 561.66,-149.8 505.34,-149.8 505.34,-113.8 588.66,-113.8 588.66,-149.8"/>
<text text-anchor="middle" x="547" y="-127.6" font-family="Times,serif" font-size="14.00">AppModule</text>
</g>
<!-- AppComponent&#45;&gt;AppModule -->
<g id="edge1" class="edge">
<title>AppComponent&#45;&gt;AppModule</title>
<path fill="none" stroke="black" d="M403,-84.83C403,-101.2 403,-122.8 403,-122.8 403,-122.8 494.96,-122.8 494.96,-122.8"/>
<polygon fill="black" stroke="black" points="494.96,-126.3 504.96,-122.8 494.96,-119.3 494.96,-126.3"/>
</g>
<!-- ConfirmationComponent -->
<g id="node2" class="node">
<title>ConfirmationComponent</title>
<polygon fill="#ffffb3" stroke="black" points="332.27,-84.8 175.73,-84.8 175.73,-48.8 332.27,-48.8 332.27,-84.8"/>
<text text-anchor="middle" x="254" y="-62.6" font-family="Times,serif" font-size="14.00">ConfirmationComponent</text>
</g>
<!-- ConfirmationComponent&#45;&gt;AppModule -->
<g id="edge2" class="edge">
<title>ConfirmationComponent&#45;&gt;AppModule</title>
<path fill="none" stroke="black" d="M254,-84.91C254,-104.14 254,-131.8 254,-131.8 254,-131.8 495.33,-131.8 495.33,-131.8"/>
<polygon fill="black" stroke="black" points="495.33,-135.3 505.33,-131.8 495.33,-128.3 495.33,-135.3"/>
</g>
<!-- SnackbarComponent -->
<g id="node3" class="node">
<title>SnackbarComponent</title>
<polygon fill="#ffffb3" stroke="black" points="157.92,-84.8 24.08,-84.8 24.08,-48.8 157.92,-48.8 157.92,-84.8"/>
<text text-anchor="middle" x="91" y="-62.6" font-family="Times,serif" font-size="14.00">SnackbarComponent</text>
</g>
<!-- SnackbarComponent&#45;&gt;AppModule -->
<g id="edge3" class="edge">
<title>SnackbarComponent&#45;&gt;AppModule</title>
<path fill="none" stroke="black" d="M91,-85.09C91,-107.01 91,-140.8 91,-140.8 91,-140.8 495.32,-140.8 495.32,-140.8"/>
<polygon fill="black" stroke="black" points="495.32,-144.3 505.32,-140.8 495.32,-137.3 495.32,-144.3"/>
</g>
<!-- AppComponent  -->
<g id="node7" class="node">
<title>AppComponent </title>
<polygon fill="#80b1d3" stroke="black" points="601.44,-214.8 492.56,-214.8 492.56,-178.8 601.44,-178.8 601.44,-214.8"/>
<text text-anchor="middle" x="547" y="-192.6" font-family="Times,serif" font-size="14.00">AppComponent </text>
</g>
<!-- AppModule&#45;&gt;AppComponent  -->
<g id="edge6" class="edge">
<title>AppModule&#45;&gt;AppComponent </title>
<path fill="none" stroke="black" stroke-dasharray="1,5" d="M547,-149.91C547,-149.91 547,-168.79 547,-168.79"/>
<polygon fill="black" stroke="black" points="543.5,-168.79 547,-178.79 550.5,-168.79 543.5,-168.79"/>
</g>
<!-- AppRoutingModule -->
<g id="node5" class="node">
<title>AppRoutingModule</title>
<polygon fill="#8dd3c7" stroke="black" points="1045.27,-84.8 1042.27,-88.8 1021.27,-88.8 1018.27,-84.8 916.73,-84.8 916.73,-48.8 1045.27,-48.8 1045.27,-84.8"/>
<text text-anchor="middle" x="981" y="-62.6" font-family="Times,serif" font-size="14.00">AppRoutingModule</text>
</g>
<!-- AppRoutingModule&#45;&gt;AppModule -->
<g id="edge4" class="edge">
<title>AppRoutingModule&#45;&gt;AppModule</title>
<path fill="none" stroke="black" d="M981,-85.09C981,-107.01 981,-140.8 981,-140.8 981,-140.8 599.01,-140.8 599.01,-140.8"/>
<polygon fill="black" stroke="black" points="599.01,-137.3 589.01,-140.8 599.01,-144.3 599.01,-137.3"/>
</g>
<!-- SharedModule -->
<g id="node6" class="node">
<title>SharedModule</title>
<polygon fill="#8dd3c7" stroke="black" points="898.42,-84.8 895.42,-88.8 874.42,-88.8 871.42,-84.8 799.58,-84.8 799.58,-48.8 898.42,-48.8 898.42,-84.8"/>
<text text-anchor="middle" x="849" y="-62.6" font-family="Times,serif" font-size="14.00">SharedModule</text>
</g>
<!-- SharedModule&#45;&gt;AppModule -->
<g id="edge5" class="edge">
<title>SharedModule&#45;&gt;AppModule</title>
<path fill="none" stroke="black" d="M849,-84.91C849,-104.14 849,-131.8 849,-131.8 849,-131.8 598.67,-131.8 598.67,-131.8"/>
<polygon fill="black" stroke="black" points="598.67,-128.3 588.67,-131.8 598.67,-135.3 598.67,-128.3"/>
</g>
<!-- BaseInterceptor -->
<g id="node8" class="node">
<title>BaseInterceptor</title>
<ellipse fill="#fdb462" stroke="black" cx="704" cy="-66.8" rx="72.33" ry="18"/>
<text text-anchor="middle" x="704" y="-62.6" font-family="Times,serif" font-size="14.00">BaseInterceptor</text>
</g>
<!-- BaseInterceptor&#45;&gt;AppModule -->
<g id="edge7" class="edge">
<title>BaseInterceptor&#45;&gt;AppModule</title>
<path fill="none" stroke="black" d="M704,-84.83C704,-101.2 704,-122.8 704,-122.8 704,-122.8 598.66,-122.8 598.66,-122.8"/>
<polygon fill="black" stroke="black" points="598.66,-119.3 588.66,-122.8 598.66,-126.3 598.66,-119.3"/>
</g>
<!-- JwtInterceptor -->
<g id="node9" class="node">
<title>JwtInterceptor</title>
<ellipse fill="#fdb462" stroke="black" cx="547" cy="-66.8" rx="66.61" ry="18"/>
<text text-anchor="middle" x="547" y="-62.6" font-family="Times,serif" font-size="14.00">JwtInterceptor</text>
</g>
<!-- JwtInterceptor&#45;&gt;AppModule -->
<g id="edge8" class="edge">
<title>JwtInterceptor&#45;&gt;AppModule</title>
<path fill="none" stroke="black" d="M547,-84.91C547,-84.91 547,-103.79 547,-103.79"/>
<polygon fill="black" stroke="black" points="543.5,-103.79 547,-113.79 550.5,-103.79 543.5,-103.79"/>
</g>
</g>
</svg>
